<svg width="32" height="32" viewBox="0 0 32 32" fill="none" xmlns="http://www.w3.org/2000/svg">
<path d="M28.8884 13.0281H19.2589C18.9461 13.0281 18.6925 12.7745 18.6925 12.4617V2.8322C18.6925 1.26813 17.4244 0 15.8603 0C14.2962 0 13.0281 1.26813 13.0281 2.8322V12.4617C13.0281 12.7745 12.7745 13.0281 12.4617 13.0281H2.8322C1.26813 13.0281 0 14.2962 0 15.8603C0 17.4244 1.26813 18.6925 2.8322 18.6925H12.4617C12.7745 18.6925 13.0281 18.9461 13.0281 19.2589V28.8884C13.0281 30.4525 14.2962 31.7206 15.8603 31.7206C17.4244 31.7206 18.6925 30.4525 18.6925 28.8884V19.2589C18.6925 18.9461 18.9461 18.6925 19.2589 18.6925H28.8884C30.4525 18.6925 31.7206 17.4244 31.7206 15.8603C31.7206 14.2962 30.4525 13.0281 28.8884 13.0281Z" fill="#232323"/>
</svg>
